<svg xmlns="http://www.w3.org/2000/svg" width="200" height="200" viewBox="0 0 200 200">
  <g id="Group_2989" data-name="Group 2989" transform="translate(15078 -5445)">
    <rect id="Rectangle_1923" data-name="Rectangle 1923" width="200" height="200" transform="translate(-15078 5445)" fill="#fff" opacity="0"/>
    <g id="Group_2988" data-name="Group 2988" transform="translate(-15077.804 5469.604)">
      <g id="Group_2976" data-name="Group 2976" transform="translate(2.146 80.488)">
        <path id="Path_1" data-name="Path 1" d="M287.958,255.831c-.118-.531-.336-1.045-.478-1.57-.218-.8-.626-.962-1.446-.7-4.367,1.387-8.764,2.7-13.137,4.078a4.594,4.594,0,0,0-1.918.956c-1.812,1.889-3.624,1.688-5.931.779a177.517,177.517,0,0,0-49.414-11.915,54.439,54.439,0,0,0-21.4,1.93,112.22,112.22,0,0,0-19.765,8.144,37.027,37.027,0,0,1-18.142,4.887c-4.839-.047-9.673-.454-14.506-.726-2.827-.159-5.654-.425-8.492-.525a3.564,3.564,0,0,0-3.5,2.16,4.131,4.131,0,0,1-1.629,1.5,11.508,11.508,0,0,1-2.254.814,26.621,26.621,0,0,0-7,3.429H105.48c.012.307.024.608.035.915H282.15c.089-.3.177-.608.271-.915.319-1.086.626-2.178.932-3.264.035-.13.006-.266.006-.177-1.281-.632-2.42-1.2-3.907-1.942.62-.5,1.05-.9,1.529-1.21,1.824-1.2,3.629-2.414,5.5-3.535C287.863,258.133,288.3,257.377,287.958,255.831ZM137.443,269.074a17.318,17.318,0,0,1,16.094,0Zm74.874-6.917H175.2l8.02-4.373a50.827,50.827,0,0,1,14.311-5.223,82.808,82.808,0,0,1,14.784-1.6Zm2.75-11.2a82.828,82.828,0,0,1,17.6,2.219,41.649,41.649,0,0,1,10.393,4.007l9.124,4.975H215.067Zm29.03,18.118a17.315,17.315,0,0,1,16.176,0Z" transform="translate(-105.48 -247.176)" fill="#fff"/>
      </g>
      <g id="Group_2977" data-name="Group 2977" transform="translate(34.11 100.404)">
        <path id="Path_2" data-name="Path 2" d="M175.734,282.9H159.64A17.318,17.318,0,0,1,175.734,282.9Z" transform="translate(-159.64 -280.922)" fill="#ccc"/>
      </g>
      <g id="Group_2978" data-name="Group 2978" transform="translate(71.868 84.275)">
        <path id="Path_3" data-name="Path 3" d="M245.952,255.191a82.8,82.8,0,0,1,14.784-1.6v11.2H223.62l8.02-4.373A50.826,50.826,0,0,1,245.952,255.191Z" transform="translate(-223.62 -253.592)" fill="#ccc"/>
      </g>
      <g id="Group_2979" data-name="Group 2979" transform="translate(111.733 84.269)">
        <path id="Path_4" data-name="Path 4" d="M328.291,264.783H291.17v-11.2a82.832,82.832,0,0,1,17.6,2.219,41.65,41.65,0,0,1,10.393,4.007Z" transform="translate(-291.17 -253.582)" fill="#ccc"/>
      </g>
      <g id="Group_2980" data-name="Group 2980" transform="translate(140.763 100.382)">
        <path id="Path_5" data-name="Path 5" d="M356.536,282.889H340.36A17.315,17.315,0,0,1,356.536,282.889Z" transform="translate(-340.36 -280.884)" fill="#ccc"/>
      </g>
      <g id="Group_2981" data-name="Group 2981" transform="translate(2.082 0)">
        <path id="Path_6" data-name="Path 6" d="M303.091,209.65q0,1.771-.065,3.529c-.012.307-.024.608-.035.915H282.105c.089-.3.177-.608.271-.915.319-1.086.626-2.178.932-3.264.035-.13.006-.266.006-.177-1.281-.632-2.42-1.2-3.907-1.942.62-.5,1.051-.9,1.529-1.21,1.824-1.2,3.629-2.414,5.5-3.535,1.381-.814,1.818-1.57,1.475-3.116-.118-.531-.336-1.045-.478-1.57-.218-.8-.626-.962-1.446-.7-4.367,1.387-8.764,2.7-13.137,4.078a4.593,4.593,0,0,0-1.918.956c-1.812,1.889-3.624,1.688-5.931.779a177.518,177.518,0,0,0-49.414-11.915,54.438,54.438,0,0,0-21.4,1.93,112.22,112.22,0,0,0-19.764,8.144,37.026,37.026,0,0,1-18.142,4.887c-4.839-.047-9.673-.454-14.506-.726-2.827-.159-5.654-.425-8.492-.525a3.564,3.564,0,0,0-3.5,2.16,4.132,4.132,0,0,1-1.629,1.5,11.51,11.51,0,0,1-2.254.814,26.621,26.621,0,0,0-7,3.429H105.435c-.035-.95-.053-1.912-.059-2.868-.006-.218-.006-.443-.006-.661,0-.419,0-.838.006-1.263v-.018a98.861,98.861,0,0,1,197.716,1.281Z" transform="translate(-105.37 -110.792)" fill="#e6e6e6"/>
      </g>
      <path id="Path_44" data-name="Path 44" d="M197.488,230.367a50.828,50.828,0,0,0-14.311,5.223l-8.02,4.373h37.115v-11.2A82.808,82.808,0,0,0,197.488,230.367Zm45.531,4.621a41.653,41.653,0,0,0-10.393-4.007,82.832,82.832,0,0,0-17.6-2.219v11.2h37.121Zm39.358,11.892c-.094.307-.183.614-.271.915,12.24-.543,6.757-.873,19.109-.873.6,0,1.21-.024,1.812-.041Zm-144.979,0h16.094A17.319,17.319,0,0,0,137.4,246.88Zm165.068-14.73c-.4-.024-.8-.047-1.216-.077-.083-.921-.153-1.711-.236-2.591-.915-.106-1.759-.207-2.544-.3-1.027-1.959,1.741-5.872-3.1-5.494l-5.347.041c-1.192.5-1.121,1.346-1.1,2.3.012.779.006,1.558.006,2.337-.242.047-.484.089-.72.13a6.1,6.1,0,0,1-.431-1.57c-.035-3.576.03-7.153-.053-10.729a3.1,3.1,0,0,0-.868-1.989,37.4,37.4,0,0,0-3.464-2.662c-1.281,1.44-2.549,2.862-3.824,4.29-.289-.254-.685-.614-1.1-.991-1.352,1.5-2.626,2.762-2.514,5.028.053.986-1.269,2.036-1.965,3.063-.236-.106-.472-.207-.714-.313v-5.04c0-3.689,0-3.689-3.57-4.1-.006,0-.012-.006-.018-.012-.094-.024-.165-.124,0,0-1.3-2.178,1.375-5.311-2.113-6.415a14.576,14.576,0,0,0-.578-3.317c-.9-2.148-2.018-4.2-2.833-5.849a6.076,6.076,0,0,1-2.2,5.182,2.713,2.713,0,0,0-.6,1.711c-.224,1.971-.36,3.948-.525,5.919-.171-2.721.431-5.689-1.428-7.961-1.127-1.369-2.986-3.1-4.4-3a5.384,5.384,0,0,0-4.09,3.553,16.38,16.38,0,0,0-.986,4.285c-.053.472-.632,1-1.11,1.275a9.67,9.67,0,0,1-2.066.62V223.94h-.46c0-.655.018-1.31-.006-1.959-.254-6.958.608-13.957-.584-20.756-.72-.313-1.233-.726-1.723-.7-.838.047-2.19.153-2.384.626a13.954,13.954,0,0,0-1.062,4.692c-.142,3.629-.035,7.277-.047,10.912,0,.691-.1,1.375-.159,2.066-.23-.006-.46-.012-.69-.024V204.105c-1.039-.183-1.694-.3-2.207-.39-.283-1.334-.165-3-.891-3.547-.785-.59-2.361-.13-3.671-.13-.065,1.322-.118,2.49-.183,3.724-.785.094-1.452.183-2.367.3v4.987c-.189.112-.378.218-.567.325a11.773,11.773,0,0,1-1.528-1.434c-.791-1.074-1.469-.915-2.2.012-.85,1.074-1.7,2.154-2.738,3.476-.637-2.886-.089-5.766-.3-8.593-.218-2.98-.519-5.955-.785-9.006-1.948,1.3-3.936.909-4.7-.8-.6,1.564-1.015,1.694-4.987,1.381-.212,8.209-.425,16.395-.637,24.675-1.806-.626-2.42-1.617-2.248-3.346.183-1.859.006-3.759.047-5.642.047-2.461-.271-3.022-3.358-2.549a8.827,8.827,0,0,1-2.367-.006,2.3,2.3,0,0,0-2.555,2.29c-.012,2.75-.006,5.5-.006,8.439h-4.326c-.053-1.458-.767-1.871-2.231-1.233-.207,1.995-.419,4.054-.626,6.12-.248-.018-.49-.029-.738-.047,0-1.009.012-2.018,0-3.028-.035-2.29-.862-3.134-3.27-3.1-1.936.029-1.54,1.741-1.765,2.874a13.859,13.859,0,0,0-.035,2.709c-1.706.384-2.308-.006-2.237-1.641a19.586,19.586,0,0,0-.6-3.9c-.283-.006-.572-.006-.85-.012-.195,1.558-.431,3.1-.567,4.668-.089.962-.26,1.741-1.44,1.133-1.588-.82-2.579-.543-2.774,1.452-.779-.384-1.422-.708-2.119-1.056,0-2.461-.142-4.916.047-7.348a3.247,3.247,0,0,0-2.148-3.618c-1.334-.425-3.352-1.422-4.167,1.11-.077.254-.62.39-.974.513-1.481.525-2.709,1.233-2.278,3.281h-4.261c.083.148.165.3.248.448-.614.567-1.269,1.092-1.83,1.706-.531.59-1.281,1.222-1.387,1.924-.248,1.576.389,3.423-1.747,4.273,0-4.078.006-4.739,0-4.822v-.012c0-.083-.006-.726-.024-4.822,0-.608-.289-1.7-.543-1.729a7.055,7.055,0,0,0-2.4.389c-.33.083-.614.431-.932.454-1.794.142-3.594.254-5.394.307-1.145.041-1.682.5-1.723,1.706-.271,8.546-1.051,10.977-1.139,11.337l-.49-.053c0-.643-.053-.413.041-9.513.024-1.841-.968-2.331-2.361-2.656a6.987,6.987,0,0,0-1.428-.018c0-4.562.006-9.006-.012-13.444-.006-.614.053-1.593-.26-1.765-1.641-.891-3.181-2.325-5.335-1.517-.738.271-1.369.561-1.953-.525-.454-.838-1.375-.62-1.588.407a18.9,18.9,0,0,0-.36,3.511c-.059,2.821-.006,5.642-.053,8.463-.006.348-.336.69-.508,1.033-.224-.165-.637-.33-.643-.5-.006-2.42-1.534-1.641-3-1.493v16.105h-1.924c0-3.429.035-6.746-.024-10.056-.012-.62-.319-1.729-.59-1.759-2.042-.242-4.108-.271-6.167-.348a12.2,12.2,0,0,0-1.31.088c-.083-.673-.153-1.216-.224-1.729-2.431-.7-2.786-.466-2.791,1.847,0,10.605.018,1.493-.03,12.1a11.471,11.471,0,0,1-.7,2.756c-.189-.035-.384-.071-.578-.112v-6.8c-.862-.195-1.576-.36-2.29-.525-.124-.59-.236-1.121-.342-1.617-3.092-.572-3.364-.466-4.1,1.54-.148.029-.283.053-.413.077-2.638.454-2.337-.012-2.349,3.293-.006.525-.006.868-.006,1.08.006.165.012.537.024,1.269l-.018,14.63v1.942l-.006,2.868H118.9a26.62,26.62,0,0,1,7-3.429,11.51,11.51,0,0,0,2.254-.814,4.132,4.132,0,0,0,1.629-1.5,3.564,3.564,0,0,1,3.5-2.16c2.839.1,5.666.366,8.492.525,4.833.271,9.667.679,14.506.726a37.026,37.026,0,0,0,18.142-4.887,112.219,112.219,0,0,1,19.764-8.144,54.439,54.439,0,0,1,21.4-1.93A177.518,177.518,0,0,1,265,237.184c2.308.909,4.119,1.11,5.931-.779a4.593,4.593,0,0,1,1.918-.956c4.373-1.375,8.77-2.691,13.137-4.078.82-.266,1.228-.1,1.446.7.142.525.36,1.039.478,1.57.342,1.546-.094,2.3-1.475,3.116-1.871,1.121-3.677,2.337-5.5,3.535-.478.313-.909.708-1.529,1.21,1.487.738,2.626,1.31,3.907,1.942,0-.089.029.047-.006.177-.307,1.086-.614,2.178-.932,3.264-.094.307-.183.614-.271.915,12.24-.543,6.757-.873,19.109-.873.6,0,1.21-.024,1.812-.041h.065V232.191C302.885,232.179,302.678,232.167,302.466,232.15Zm-58.414,14.73h16.176A17.316,17.316,0,0,0,244.052,246.88Z" transform="translate(-103.288 -144.493)" fill="#0989b8"/>
      <g id="Group_2982" data-name="Group 2982" transform="translate(0 109.493)">
        <path id="Path_8" data-name="Path 8" d="M127.61,297.478l-3.351,23.847h-8.721l-4.395-14.785-2.077,14.785h-7.222l3.352-23.847h8.721l4.395,14.785,2.078-14.785Z" transform="translate(-101.843 -296.796)" fill="#1a1a1a"/>
        <path id="Path_9" data-name="Path 9" d="M164.532,317.3c-.872,6.2-4.208,8.857-11.055,8.857-6.882,0-9.438-2.657-8.567-8.857s4.175-8.858,11.056-8.858C162.813,308.445,165.4,311.1,164.532,317.3Zm-10.4,4.156c2.044,0,3.107-1.261,3.514-4.156s-.3-4.156-2.345-4.156c-2.078,0-3.141,1.261-3.549,4.156S152.058,321.459,154.137,321.459Z" transform="translate(-119.426 -301.291)" fill="#1a1a1a"/>
        <path id="Path_10" data-name="Path 10" d="M194.8,326.056l.149-13.661-3.725,13.661h-8.381l-2.2-17.033h6.848l.723,11.821,3.194-11.821h8.415l-.416,11.446,3.926-11.446h6.847l-6.959,17.033Z" transform="translate(-134.137 -301.528)" fill="#1a1a1a"/>
        <path id="Path_11" data-name="Path 11" d="M251.644,314.136c-.709,5.042-3.974,7.188-10.787,7.188H229.649L233,297.478h10.833c6.37,0,8.857,1.942,8.215,6.507a5.908,5.908,0,0,1-3.118,4.735A5.082,5.082,0,0,1,251.644,314.136Zm-11.285,2.487c2.01,0,3-.75,3.245-2.487.283-2.01-.444-2.9-2.489-2.9H238.7l-.756,5.382h2.418Zm-1.054-9.709h2.044c1.567,0,2.358-.784,2.607-2.555.215-1.533-.375-2.181-1.942-2.181H239.97Z" transform="translate(-154.223 -296.796)" fill="#0989b8"/>
        <path id="Path_12" data-name="Path 12" d="M276.033,326.4c-4.837,0-6.537-2.453-5.732-8.176l1.293-9.2h6.847l-1.292,9.2c-.345,2.453.125,3.475,1.487,3.475,1.4,0,2.027-1.091,2.381-3.611l1.274-9.061h6.881l-2.394,17.033h-5.314L280.9,325A7.638,7.638,0,0,1,276.033,326.4Z" transform="translate(-170.805 -301.528)" fill="#0989b8"/>
        <path id="Path_13" data-name="Path 13" d="M307.472,325.614l-4.959-16.591h6.473l2.045,8.721,3.951-8.721h6.473l-8.186,16.795c-2.16,4.463-4.337,6.37-7.232,6.37h-4.292l.555-3.952h2.384c1.091,0,1.863-.647,2.55-2.146Z" transform="translate(-183.771 -301.528)" fill="#0989b8"/>
        <path id="Path_14" data-name="Path 14" d="M353.923,313.629c-.776,5.519-4.246,7.9-11.6,7.9-7.325,0-10.177-2.248-9.439-7.495h6.881c-.273,1.942.7,2.793,3.219,2.793,2.248,0,3.356-.613,3.567-2.112.637-4.531-13.145-1.975-11.947-10.492.776-5.519,4.177-7.9,11.263-7.9,7.12,0,9.836,2.248,9.1,7.5h-6.848c.273-1.942-.6-2.794-2.912-2.794-2.01,0-2.987.647-3.193,2.112C341.521,306.611,355.221,304.4,353.923,313.629Z" transform="translate(-196.485 -296.323)" fill="#1a1a1a"/>
        <path id="Path_15" data-name="Path 15" d="M377.887,319.04c-.32,2.283.645,3.168,2.246,3.168a2.417,2.417,0,0,0,2.58-1.874h6.472c-1.289,4.089-4.157,5.826-9.607,5.826-6.643,0-9.1-2.657-8.226-8.857s4.073-8.858,10.716-8.858c6.609,0,9.1,2.657,8.23,8.824l-.249,1.771Zm.542-3.611h5.212c.3-2.112-.425-3.032-2.231-3.032C379.809,312.4,378.694,313.556,378.43,315.429Z" transform="translate(-212.229 -301.291)" fill="#1a1a1a"/>
        <path id="Path_16" data-name="Path 16" d="M408.284,297.478h6.847l-3.352,23.847h-6.848Z" transform="translate(-226.061 -296.796)" fill="#1a1a1a"/>
        <path id="Path_17" data-name="Path 17" d="M424.982,297.478h6.848l-3.352,23.847H421.63Z" transform="translate(-232.904 -296.796)" fill="#1a1a1a"/>
      </g>
      <g id="Group_2983" data-name="Group 2983" transform="translate(0.317 143.745)">
        <path id="Path_18" data-name="Path 18" d="M102.38,361.381v-6.858H104.7a2.681,2.681,0,0,1,1.321.289,1.84,1.84,0,0,1,.762.783,2.4,2.4,0,0,1,.248,1.1,2.436,2.436,0,0,1-.246,1.1,1.844,1.844,0,0,1-.759.79,2.625,2.625,0,0,1-1.312.293H103.05v-.736h1.635a1.778,1.778,0,0,0,.888-.191,1.144,1.144,0,0,0,.487-.518,1.856,1.856,0,0,0,0-1.475,1.119,1.119,0,0,0-.49-.51,1.87,1.87,0,0,0-.9-.185h-1.46v6.122Z" transform="translate(-102.38 -354.428)" fill="#999"/>
        <path id="Path_19" data-name="Path 19" d="M115.187,361.381v-6.858H117.5a2.813,2.813,0,0,1,1.32.273,1.76,1.76,0,0,1,.764.748,2.311,2.311,0,0,1,.248,1.081,2.27,2.27,0,0,1-.248,1.075,1.736,1.736,0,0,1-.76.735,2.829,2.829,0,0,1-1.31.267h-1.876v-.751h1.848a2.077,2.077,0,0,0,.886-.16,1.025,1.025,0,0,0,.489-.458,1.523,1.523,0,0,0,.153-.709,1.589,1.589,0,0,0-.154-.719,1.06,1.06,0,0,0-.492-.477,2,2,0,0,0-.894-.169h-1.461v6.122Zm3.229-3.081,1.688,3.081h-.965l-1.661-3.081Z" transform="translate(-107.629 -354.428)" fill="#999"/>
        <path id="Path_20" data-name="Path 20" d="M133.816,357.886a4.182,4.182,0,0,1-.392,1.875,2.945,2.945,0,0,1-1.075,1.219,3.053,3.053,0,0,1-3.121,0,2.945,2.945,0,0,1-1.075-1.219,4.684,4.684,0,0,1,0-3.751,2.945,2.945,0,0,1,1.075-1.219,3.053,3.053,0,0,1,3.121,0,2.945,2.945,0,0,1,1.075,1.219A4.185,4.185,0,0,1,133.816,357.886Zm-.8,0a3.449,3.449,0,0,0-.3-1.5,2.172,2.172,0,0,0-.8-.927,2.176,2.176,0,0,0-2.254,0,2.171,2.171,0,0,0-.8.927,3.967,3.967,0,0,0,0,3.009,2.171,2.171,0,0,0,.8.927,2.169,2.169,0,0,0,2.254,0,2.172,2.172,0,0,0,.8-.927A3.447,3.447,0,0,0,133.012,357.886Z" transform="translate(-112.782 -354.362)" fill="#999"/>
        <path id="Path_21" data-name="Path 21" d="M143.282,361.381v-6.858H145.6a2.681,2.681,0,0,1,1.321.289,1.84,1.84,0,0,1,.762.783,2.413,2.413,0,0,1,.248,1.1,2.444,2.444,0,0,1-.246,1.1,1.848,1.848,0,0,1-.759.79,2.629,2.629,0,0,1-1.313.293h-1.661v-.736h1.634a1.777,1.777,0,0,0,.888-.191,1.144,1.144,0,0,0,.487-.518,1.856,1.856,0,0,0,0-1.475,1.119,1.119,0,0,0-.49-.51,1.869,1.869,0,0,0-.9-.185h-1.461v6.122Z" transform="translate(-119.143 -354.428)" fill="#999"/>
        <path id="Path_22" data-name="Path 22" d="M156.088,361.381v-6.858h4.14v.737h-3.309v2.318h3.095v.736h-3.095v2.331h3.362v.737Z" transform="translate(-124.392 -354.428)" fill="#999"/>
        <path id="Path_23" data-name="Path 23" d="M168.257,361.381v-6.858h2.318a2.813,2.813,0,0,1,1.32.273,1.76,1.76,0,0,1,.764.748,2.3,2.3,0,0,1,.248,1.081,2.264,2.264,0,0,1-.248,1.075,1.736,1.736,0,0,1-.76.735,2.828,2.828,0,0,1-1.309.267h-1.876v-.751h1.849a2.077,2.077,0,0,0,.886-.16,1.03,1.03,0,0,0,.489-.458,1.524,1.524,0,0,0,.153-.709,1.589,1.589,0,0,0-.154-.719,1.062,1.062,0,0,0-.493-.477,2,2,0,0,0-.894-.169h-1.46v6.122Zm3.229-3.081,1.688,3.081h-.964l-1.661-3.081Z" transform="translate(-129.379 -354.428)" fill="#999"/>
        <path id="Path_24" data-name="Path 24" d="M180.527,355.26v-.737h5.144v.737h-2.157v6.122h-.83V355.26Z" transform="translate(-134.408 -354.428)" fill="#999"/>
        <path id="Path_25" data-name="Path 25" d="M193.639,354.523h.951l1.9,3.2h.081l1.9-3.2h.951l-2.478,4.032v2.826h-.831v-2.826Z" transform="translate(-139.782 -354.428)" fill="#999"/>
        <path id="Path_26" data-name="Path 26" d="M215.38,361.381h-.871l2.519-6.858h.858l2.519,6.858h-.871l-2.05-5.774h-.053Zm.322-2.679h3.51v.737H215.7Z" transform="translate(-148.335 -354.428)" fill="#999"/>
        <path id="Path_27" data-name="Path 27" d="M234.644,354.523v6.858h-.8L230.1,356h-.067v5.385h-.83v-6.858h.8l3.75,5.4h.067v-5.4Z" transform="translate(-154.358 -354.428)" fill="#999"/>
        <path id="Path_28" data-name="Path 28" d="M246.283,361.381h-2.116v-6.858h2.21a3.348,3.348,0,0,1,1.708.41,2.709,2.709,0,0,1,1.089,1.176,4.628,4.628,0,0,1,0,3.674,2.707,2.707,0,0,1-1.112,1.184A3.536,3.536,0,0,1,246.283,361.381ZM245,360.645h1.233a2.747,2.747,0,0,0,1.409-.329,2.025,2.025,0,0,0,.834-.934,3.92,3.92,0,0,0,0-2.876,2.018,2.018,0,0,0-.81-.925,2.574,2.574,0,0,0-1.343-.322H245Z" transform="translate(-160.49 -354.428)" fill="#999"/>
        <path id="Path_29" data-name="Path 29" d="M265.772,354.523l2.037,5.774h.08l2.037-5.774h.87l-2.518,6.858h-.858l-2.518-6.858Z" transform="translate(-168.987 -354.428)" fill="#999"/>
        <path id="Path_30" data-name="Path 30" d="M279.6,361.381v-6.858h4.14v.737h-3.31v2.318h3.1v.736h-3.1v2.331h3.363v.737Z" transform="translate(-175.011 -354.428)" fill="#999"/>
        <path id="Path_31" data-name="Path 31" d="M291.766,361.381v-6.858h.83v3.054h3.658v-3.054h.83v6.858h-.83v-3.068H292.6v3.068Z" transform="translate(-179.998 -354.428)" fill="#999"/>
        <path id="Path_32" data-name="Path 32" d="M307.352,354.523v6.858h-.83v-6.858Z" transform="translate(-186.045 -354.428)" fill="#999"/>
        <path id="Path_33" data-name="Path 33" d="M319.006,356.6h-.83a1.759,1.759,0,0,0-.257-.629,1.784,1.784,0,0,0-.442-.457,1.92,1.92,0,0,0-.575-.279,2.281,2.281,0,0,0-.656-.093,2.08,2.08,0,0,0-1.127.315,2.171,2.171,0,0,0-.8.927,3.967,3.967,0,0,0,0,3.009,2.171,2.171,0,0,0,.8.927,2.071,2.071,0,0,0,1.127.316,2.28,2.28,0,0,0,.656-.094,1.915,1.915,0,0,0,.575-.279,1.75,1.75,0,0,0,.7-1.087h.83a2.778,2.778,0,0,1-.342.941,2.569,2.569,0,0,1-.616.705,2.7,2.7,0,0,1-.826.44,3.1,3.1,0,0,1-.976.151,2.871,2.871,0,0,1-1.56-.429,2.946,2.946,0,0,1-1.075-1.219,4.686,4.686,0,0,1,0-3.751,2.946,2.946,0,0,1,1.075-1.219,2.876,2.876,0,0,1,1.56-.429,3.1,3.1,0,0,1,.976.151,2.7,2.7,0,0,1,.826.44,2.571,2.571,0,0,1,.616.7A2.769,2.769,0,0,1,319.006,356.6Z" transform="translate(-188.79 -354.362)" fill="#999"/>
        <path id="Path_34" data-name="Path 34" d="M328.148,361.381v-6.858h.83v6.122h3.189v.737Z" transform="translate(-194.909 -354.428)" fill="#999"/>
        <path id="Path_35" data-name="Path 35" d="M339.849,361.381v-6.858h4.14v.737h-3.31v2.318h3.095v.736h-3.095v2.331h3.363v.737Z" transform="translate(-199.704 -354.428)" fill="#999"/>
        <path id="Path_36" data-name="Path 36" d="M361.77,361.381h-2.117v-6.858h2.21a3.347,3.347,0,0,1,1.708.41,2.709,2.709,0,0,1,1.089,1.176,4.629,4.629,0,0,1,0,3.674,2.7,2.7,0,0,1-1.112,1.184A3.54,3.54,0,0,1,361.77,361.381Zm-1.287-.737h1.233a2.749,2.749,0,0,0,1.41-.329,2.031,2.031,0,0,0,.834-.934,3.92,3.92,0,0,0,0-2.876,2.024,2.024,0,0,0-.81-.925,2.578,2.578,0,0,0-1.344-.322h-1.326Z" transform="translate(-207.821 -354.428)" fill="#999"/>
        <path id="Path_37" data-name="Path 37" d="M374.015,361.381v-6.858h4.14v.737h-3.31v2.318h3.1v.736h-3.1v2.331h3.363v.737Z" transform="translate(-213.707 -354.428)" fill="#999"/>
        <path id="Path_38" data-name="Path 38" d="M386.52,361.381h-.87l2.518-6.858h.858l2.518,6.858h-.87l-2.05-5.774h-.054Zm.322-2.679h3.51v.737h-3.51Z" transform="translate(-218.475 -354.428)" fill="#999"/>
        <path id="Path_39" data-name="Path 39" d="M400.346,361.381v-6.858h.83v6.122h3.189v.737Z" transform="translate(-224.498 -354.428)" fill="#999"/>
        <path id="Path_40" data-name="Path 40" d="M412.046,361.381v-6.858h4.14v.737h-3.309v2.318h3.095v.736h-3.095v2.331h3.362v.737Z" transform="translate(-229.293 -354.428)" fill="#999"/>
        <path id="Path_41" data-name="Path 41" d="M424.216,361.381v-6.858h2.318a2.813,2.813,0,0,1,1.32.273,1.76,1.76,0,0,1,.764.748,2.3,2.3,0,0,1,.248,1.081,2.264,2.264,0,0,1-.248,1.075,1.736,1.736,0,0,1-.76.735,2.828,2.828,0,0,1-1.309.267h-1.876v-.751h1.849a2.077,2.077,0,0,0,.886-.16,1.031,1.031,0,0,0,.489-.458,1.524,1.524,0,0,0,.153-.709,1.589,1.589,0,0,0-.154-.719,1.062,1.062,0,0,0-.493-.477,2,2,0,0,0-.894-.169h-1.46v6.122Zm3.229-3.081,1.688,3.081h-.964l-1.661-3.081Z" transform="translate(-234.281 -354.428)" fill="#999"/>
      </g>
    </g>
  </g>
</svg>
